<?xml version="1.0" encoding="UTF-8" standalone="no"?><!DOCTYPE svg PUBLIC "-//W3C//DTD SVG 1.1//EN" "http://www.w3.org/Graphics/SVG/1.1/DTD/svg11.dtd"><svg width="100%" height="100%" viewBox="0 0 72 72" version="1.1" xmlns="http://www.w3.org/2000/svg" xmlns:xlink="http://www.w3.org/1999/xlink" xml:space="preserve" xmlns:serif="http://www.serif.com/" style="fill-rule:evenodd;clip-rule:evenodd;stroke-linejoin:round;stroke-miterlimit:2;"><path d="M66.145,21.219c0.422,-0.422 1.024,-0.609 1.61,-0.5c0.586,0.108 1.081,0.498 1.324,1.042c1.877,4.371 2.921,9.184 2.921,14.239c0,19.869 -16.131,36 -36,36c-19.869,0 -36,-16.131 -36,-36c0,-19.869 16.131,-36 36,-36c9.959,0 18.979,4.053 25.499,10.598c0.696,0.707 0.691,1.843 -0.01,2.545c-4.464,4.468 -19.663,19.667 -24.2,24.204c-0.342,0.342 -0.806,0.534 -1.289,0.534c-0.483,0 -0.947,-0.192 -1.289,-0.534c-2.802,-2.802 -9.516,-9.516 -13.529,-13.529c-1.758,-1.757 -4.606,-1.757 -6.364,0c0,0 0,0 0,0c-0.844,0.844 -1.318,1.989 -1.318,3.182c0,1.193 0.474,2.338 1.318,3.182c3.752,3.752 10.081,10.081 14.845,14.845c3.5,3.5 9.174,3.5 12.674,0c7.432,-7.432 19.308,-19.308 23.808,-23.808Z" style="fill:#fff;"/></svg>