<?xml version="1.0" encoding="UTF-8" standalone="no"?><!DOCTYPE svg PUBLIC "-//W3C//DTD SVG 1.1//EN" "http://www.w3.org/Graphics/SVG/1.1/DTD/svg11.dtd"><svg width="100%" height="100%" viewBox="0 0 72 72" version="1.1" xmlns="http://www.w3.org/2000/svg" xmlns:xlink="http://www.w3.org/1999/xlink" xml:space="preserve" xmlns:serif="http://www.serif.com/" style="fill-rule:evenodd;clip-rule:evenodd;stroke-linejoin:round;stroke-miterlimit:2;"><g><path d="M36,0c19.869,0 36,16.131 36,36c0,19.869 -16.131,36 -36,36c-19.869,0 -36,-16.131 -36,-36c0,-19.869 16.131,-36 36,-36Zm0.683,55.365c-6.829,0 -12.124,1.088 -15.791,2.224c-1.372,0.436 -2.873,0.034 -3.843,-1.031c-0.97,-1.065 -1.231,-2.597 -0.669,-3.923c3.207,-7.494 11.093,-12.795 20.303,-12.795c8.081,0 15.422,4.673 18.71,11.327c0.618,1.258 0.47,2.758 -0.381,3.871c-0.851,1.114 -2.259,1.65 -3.635,1.384c-3.479,-0.547 -8.452,-1.057 -14.694,-1.057Zm-4.052,-37.065c0.786,2.615 -5.681,14.34 -12.265,14.34c-6.881,0 -8.377,-13.942 -6.881,-14.34c1.58,-0.421 3.385,6.141 7.778,6.373c4.393,0.232 10.77,-8.365 11.368,-6.373Zm6.596,0c-0.786,2.615 5.681,14.34 12.266,14.34c6.881,0 8.376,-13.942 6.881,-14.34c-1.58,-0.421 -3.385,6.141 -7.779,6.373c-4.393,0.232 -10.77,-8.365 -11.368,-6.373Z" style="fill:#fff;"/></g></svg>