<?xml version="1.0" encoding="UTF-8" standalone="no"?><!DOCTYPE svg PUBLIC "-//W3C//DTD SVG 1.1//EN" "http://www.w3.org/Graphics/SVG/1.1/DTD/svg11.dtd"><svg width="100%" height="100%" viewBox="0 0 72 72" version="1.1" xmlns="http://www.w3.org/2000/svg" xmlns:xlink="http://www.w3.org/1999/xlink" xml:space="preserve" xmlns:serif="http://www.serif.com/" style="fill-rule:evenodd;clip-rule:evenodd;stroke-linejoin:round;stroke-miterlimit:2;"><g><path d="M36,0c19.869,0 36,16.131 36,36c0,19.869 -16.131,36 -36,36c-19.869,0 -36,-16.131 -36,-36c0,-19.869 16.131,-36 36,-36Zm0.436,51.206c-4.784,0 -8.388,1.43 -10.731,2.787c-0.58,0.345 -1.318,0.266 -1.811,-0.194c-0.494,-0.46 -0.624,-1.191 -0.32,-1.793c2.099,-4.113 7.07,-7.006 12.862,-7.006c4.966,0 9.494,2.435 11.694,5.954c0.351,0.567 0.291,1.296 -0.146,1.798c-0.437,0.503 -1.15,0.663 -1.76,0.394c-2.232,-0.96 -5.552,-1.94 -9.788,-1.94Zm11.939,-28.706c3.105,0 5.625,3.025 5.625,6.75c0,3.725 -2.52,6.75 -5.625,6.75c-3.105,0 -5.625,-3.025 -5.625,-6.75c0,-3.725 2.52,-6.75 5.625,-6.75Zm-24.75,0c3.105,0 5.625,3.025 5.625,6.75c0,3.725 -2.52,6.75 -5.625,6.75c-3.105,0 -5.625,-3.025 -5.625,-6.75c0,-3.725 2.52,-6.75 5.625,-6.75Z" style="fill:#fff;"/></g></svg>