<?xml version="1.0" encoding="UTF-8" standalone="no"?><!DOCTYPE svg PUBLIC "-//W3C//DTD SVG 1.1//EN" "http://www.w3.org/Graphics/SVG/1.1/DTD/svg11.dtd"><svg width="100%" height="100%" viewBox="0 0 72 72" version="1.1" xmlns="http://www.w3.org/2000/svg" xmlns:xlink="http://www.w3.org/1999/xlink" xml:space="preserve" xmlns:serif="http://www.serif.com/" style="fill-rule:evenodd;clip-rule:evenodd;stroke-linejoin:round;stroke-miterlimit:2;"><g><path d="M36,0c19.869,0 36,16.131 36,36c0,19.869 -16.131,36 -36,36c-19.869,0 -36,-16.131 -36,-36c0,-19.869 16.131,-36 36,-36Zm0,42.337c13.685,0 24.796,-4.133 24.796,0c0,11.404 -11.111,20.663 -24.796,20.663c-13.685,0 -24.796,-9.259 -24.796,-20.663c0,-4.133 11.111,0 24.796,0Zm0,2.402c12.026,0 21.79,-3.463 21.79,0c0,3.463 -9.764,7.461 -21.79,7.461c-12.026,0 -21.79,-3.998 -21.79,-7.461c0,-3.463 9.764,0 21.79,0Zm-24.729,-13.77c-0.806,-2.015 5.828,-11.049 12.583,-11.049c7.06,0 8.594,10.742 7.06,11.049c-1.621,0.324 -3.473,-4.732 -7.98,-4.911c-4.508,-0.178 -11.049,6.446 -11.663,4.911Zm49.458,0c0.806,-2.015 -5.828,-11.049 -12.583,-11.049c-7.06,0 -8.594,10.742 -7.06,11.049c1.621,0.324 3.473,-4.732 7.98,-4.911c4.508,-0.178 11.049,6.446 11.663,4.911Z" style="fill:#fff;"/></g></svg>