<?xml version="1.0" encoding="UTF-8" standalone="no"?><!DOCTYPE svg PUBLIC "-//W3C//DTD SVG 1.1//EN" "http://www.w3.org/Graphics/SVG/1.1/DTD/svg11.dtd"><svg width="100%" height="100%" viewBox="0 0 72 72" version="1.1" xmlns="http://www.w3.org/2000/svg" xmlns:xlink="http://www.w3.org/1999/xlink" xml:space="preserve" xmlns:serif="http://www.serif.com/" style="fill-rule:evenodd;clip-rule:evenodd;stroke-linejoin:round;stroke-miterlimit:2;"><g><path d="M36,0c19.869,0 36,16.131 36,36c0,19.869 -16.131,36 -36,36c-19.869,0 -36,-16.131 -36,-36c0,-19.869 16.131,-36 36,-36Zm1.71,48.559c6.183,-0.308 10.158,-1.039 12.524,-1.655c0.644,-0.253 1.379,-0.033 1.779,0.533c0.399,0.565 0.362,1.331 -0.091,1.854c-2.08,2.406 -6.84,3.564 -14.212,3.984c-5.316,0.303 -9.876,0.067 -13.233,-0.272c-0.733,-0.09 -1.295,-0.694 -1.331,-1.432c-0.037,-0.737 0.463,-1.393 1.183,-1.555c3.279,-0.696 7.81,-1.179 13.381,-1.457Zm10.665,-26.059c3.105,0 5.625,3.025 5.625,6.75c0,3.725 -2.52,6.75 -5.625,6.75c-3.105,0 -5.625,-3.025 -5.625,-6.75c0,-3.725 2.52,-6.75 5.625,-6.75Zm-24.75,0c3.105,0 5.625,3.025 5.625,6.75c0,3.725 -2.52,6.75 -5.625,6.75c-3.105,0 -5.625,-3.025 -5.625,-6.75c0,-3.725 2.52,-6.75 5.625,-6.75Z" style="fill:#fff;"/></g></svg>