<?xml version="1.0" encoding="UTF-8" standalone="no"?><!DOCTYPE svg PUBLIC "-//W3C//DTD SVG 1.1//EN" "http://www.w3.org/Graphics/SVG/1.1/DTD/svg11.dtd"><svg width="100%" height="100%" viewBox="0 0 72 72" version="1.1" xmlns="http://www.w3.org/2000/svg" xmlns:xlink="http://www.w3.org/1999/xlink" xml:space="preserve" xmlns:serif="http://www.serif.com/" style="fill-rule:evenodd;clip-rule:evenodd;stroke-linejoin:round;stroke-miterlimit:2;"><g><path d="M36,0c19.869,0 36,16.131 36,36c0,19.869 -16.131,36 -36,36c-19.869,0 -36,-16.131 -36,-36c0,-19.869 16.131,-36 36,-36Zm-0.003,50.16c8.638,0 14.722,-2.761 18.042,-4.805c0.551,-0.346 1.261,-0.304 1.767,0.105c0.506,0.41 0.695,1.095 0.472,1.706c-2.402,6.524 -10.577,11.334 -20.281,11.334c-8.33,0 -15.842,-4.059 -18.603,-9.668c-0.285,-0.578 -0.174,-1.273 0.277,-1.733c0.45,-0.461 1.142,-0.587 1.727,-0.315c3.233,1.465 8.915,3.376 16.599,3.376Zm12.378,-27.66c3.105,0 5.625,3.025 5.625,6.75c0,3.725 -2.52,6.75 -5.625,6.75c-3.105,0 -5.625,-3.025 -5.625,-6.75c0,-3.725 2.52,-6.75 5.625,-6.75Zm-24.75,0c3.105,0 5.625,3.025 5.625,6.75c0,3.725 -2.52,6.75 -5.625,6.75c-3.105,0 -5.625,-3.025 -5.625,-6.75c0,-3.725 2.52,-6.75 5.625,-6.75Z" style="fill:#fff;"/></g></svg>