<?xml version="1.0" encoding="UTF-8" standalone="no"?><!DOCTYPE svg PUBLIC "-//W3C//DTD SVG 1.1//EN" "http://www.w3.org/Graphics/SVG/1.1/DTD/svg11.dtd"><svg width="100%" height="100%" viewBox="0 0 432 216" version="1.1" xmlns="http://www.w3.org/2000/svg" xmlns:xlink="http://www.w3.org/1999/xlink" xml:space="preserve" xmlns:serif="http://www.serif.com/" style="fill-rule:evenodd;clip-rule:evenodd;stroke-linejoin:round;stroke-miterlimit:2;"><g><g><path d="M251.308,-24.632c0.519,-4.943 -3.068,-9.372 -8.011,-9.891c-13.758,-1.444 -39.948,-4.193 -53.705,-5.638c-4.943,-0.519 -9.371,3.068 -9.89,8.011c-1.043,9.934 -2.716,25.87 -3.759,35.804c-0.519,4.943 3.067,9.371 8.011,9.89c13.757,1.444 39.947,4.194 53.705,5.638c4.943,0.519 9.371,-3.067 9.89,-8.011c1.043,-9.933 2.716,-25.87 3.759,-35.803Z"/><path d="M356.838,4.546c0.519,-4.944 -3.067,-9.372 -8.011,-9.891c-13.757,-1.444 -39.947,-4.194 -53.705,-5.638c-4.943,-0.519 -9.371,3.068 -9.89,8.011c-1.043,9.934 -2.716,25.87 -3.759,35.804c-0.519,4.943 3.068,9.371 8.011,9.89c13.758,1.444 39.948,4.194 53.705,5.638c4.943,0.519 9.372,-3.068 9.891,-8.011c1.042,-9.933 2.715,-25.87 3.758,-35.803Z"/><path d="M462.369,33.724c0.519,-4.944 -3.068,-9.372 -8.011,-9.891c-13.758,-1.444 -39.948,-4.194 -53.705,-5.638c-4.944,-0.519 -9.372,3.068 -9.891,8.011c-1.043,9.934 -2.716,25.87 -3.759,35.803c-0.519,4.944 3.068,9.372 8.012,9.891c13.757,1.444 39.947,4.194 53.704,5.638c4.944,0.519 9.372,-3.068 9.891,-8.011c1.043,-9.933 2.716,-25.87 3.759,-35.803Z"/></g><g><path d="M66.654,10.279c0.519,-4.944 -3.068,-9.372 -8.011,-9.891c-13.758,-1.444 -39.948,-4.193 -53.705,-5.638c-4.944,-0.519 -9.372,3.068 -9.891,8.011c-1.043,9.934 -2.716,25.87 -3.759,35.804c-0.519,4.943 3.068,9.371 8.012,9.89c13.757,1.444 39.947,4.194 53.704,5.638c4.944,0.519 9.372,-3.067 9.891,-8.011c1.043,-9.933 2.716,-25.87 3.759,-35.803Z"/><path d="M172.184,39.457c0.519,-4.944 -3.068,-9.372 -8.011,-9.891c-13.758,-1.444 -39.948,-4.194 -53.705,-5.638c-4.943,-0.519 -9.371,3.068 -9.89,8.011c-1.043,9.934 -2.716,25.87 -3.759,35.804c-0.519,4.943 3.067,9.371 8.011,9.89c13.757,1.444 39.947,4.194 53.705,5.638c4.943,0.519 9.371,-3.068 9.89,-8.011c1.043,-9.933 2.716,-25.87 3.759,-35.803Z"/><path d="M277.714,68.635c0.519,-4.944 -3.067,-9.372 -8.011,-9.891c-13.757,-1.444 -39.947,-4.194 -53.705,-5.638c-4.943,-0.519 -9.371,3.068 -9.89,8.011c-1.043,9.934 -2.716,25.87 -3.759,35.803c-0.519,4.944 3.068,9.372 8.011,9.891c13.758,1.444 39.948,4.194 53.705,5.638c4.943,0.519 9.372,-3.068 9.891,-8.011c1.042,-9.934 2.715,-25.87 3.758,-35.803Z"/><path d="M383.245,97.813c0.519,-4.944 -3.068,-9.372 -8.011,-9.891c-13.758,-1.444 -39.948,-4.194 -53.705,-5.638c-4.944,-0.519 -9.372,3.068 -9.891,8.011c-1.043,9.934 -2.716,25.87 -3.759,35.803c-0.519,4.944 3.068,9.372 8.012,9.891c13.757,1.444 39.947,4.194 53.704,5.638c4.944,0.519 9.372,-3.068 9.891,-8.011c1.043,-9.934 2.716,-25.87 3.759,-35.803Z"/><path d="M488.775,126.991c0.519,-4.944 -3.068,-9.372 -8.011,-9.891c-13.758,-1.444 -39.948,-4.194 -53.705,-5.638c-4.943,-0.519 -9.372,3.068 -9.891,8.011c-1.042,9.934 -2.715,25.87 -3.758,35.803c-0.519,4.944 3.067,9.372 8.011,9.891c13.757,1.444 39.947,4.194 53.705,5.638c4.943,0.519 9.371,-3.068 9.89,-8.011c1.043,-9.934 2.716,-25.87 3.759,-35.803Z"/></g><g><path d="M93.06,103.546c0.519,-4.944 -3.068,-9.372 -8.011,-9.891c-13.758,-1.444 -39.948,-4.194 -53.705,-5.638c-4.943,-0.519 -9.372,3.068 -9.89,8.011c-1.043,9.934 -2.716,25.87 -3.759,35.803c-0.519,4.944 3.067,9.372 8.011,9.891c13.757,1.444 39.947,4.194 53.705,5.638c4.943,0.519 9.371,-3.068 9.89,-8.011c1.043,-9.934 2.716,-25.87 3.759,-35.803Z"/><path d="M198.59,132.724c0.519,-4.944 -3.067,-9.372 -8.011,-9.891c-13.757,-1.444 -39.947,-4.194 -53.705,-5.638c-4.943,-0.519 -9.371,3.068 -9.89,8.011c-1.043,9.934 -2.716,25.87 -3.759,35.803c-0.519,4.944 3.068,9.372 8.011,9.891c13.758,1.444 39.948,4.194 53.705,5.638c4.943,0.519 9.372,-3.068 9.891,-8.011c1.042,-9.934 2.715,-25.87 3.758,-35.803Z"/><path d="M304.121,161.902c0.519,-4.944 -3.068,-9.372 -8.012,-9.891c-13.757,-1.444 -39.947,-4.194 -53.704,-5.638c-4.944,-0.519 -9.372,3.068 -9.891,8.011c-1.043,9.934 -2.716,25.87 -3.759,35.803c-0.519,4.944 3.068,9.372 8.011,9.891c13.758,1.444 39.948,4.194 53.705,5.638c4.944,0.519 9.372,-3.068 9.891,-8.011c1.043,-9.934 2.716,-25.87 3.759,-35.803Z"/><path d="M409.651,191.08c0.519,-4.944 -3.068,-9.372 -8.011,-9.891c-13.758,-1.444 -39.948,-4.194 -53.705,-5.638c-4.943,-0.519 -9.372,3.068 -9.891,8.011c-1.042,9.934 -2.715,25.87 -3.758,35.803c-0.519,4.944 3.067,9.372 8.011,9.891c13.757,1.444 39.947,4.194 53.705,5.638c4.943,0.519 9.371,-3.068 9.89,-8.011c1.043,-9.934 2.716,-25.87 3.759,-35.803Z"/></g><g><path d="M13.936,167.635c0.519,-4.944 -3.068,-9.372 -8.011,-9.891c-13.758,-1.444 -39.948,-4.194 -53.705,-5.638c-4.943,-0.519 -9.372,3.068 -9.891,8.011c-1.042,9.934 -2.715,25.87 -3.758,35.803c-0.519,4.944 3.067,9.372 8.011,9.891c13.757,1.444 39.947,4.194 53.705,5.638c4.943,0.519 9.371,-3.068 9.89,-8.011c1.043,-9.934 2.716,-25.87 3.759,-35.803Z"/><path d="M119.466,196.813c0.519,-4.944 -3.067,-9.372 -8.011,-9.891c-13.757,-1.444 -39.947,-4.194 -53.705,-5.638c-4.943,-0.519 -9.371,3.068 -9.89,8.011c-1.043,9.934 -2.716,25.87 -3.759,35.803c-0.519,4.944 3.068,9.372 8.011,9.891c13.758,1.444 39.948,4.194 53.705,5.638c4.943,0.519 9.372,-3.068 9.891,-8.011c1.042,-9.934 2.715,-25.87 3.758,-35.803Z"/><path d="M224.997,225.991c0.519,-4.944 -3.068,-9.372 -8.012,-9.891c-13.757,-1.444 -39.947,-4.194 -53.704,-5.638c-4.944,-0.519 -9.372,3.068 -9.891,8.011c-1.043,9.933 -2.716,25.87 -3.759,35.803c-0.519,4.944 3.068,9.372 8.011,9.891c13.758,1.444 39.948,4.194 53.705,5.638c4.944,0.519 9.372,-3.068 9.891,-8.011c1.043,-9.934 2.716,-25.87 3.759,-35.803Z"/></g></g></svg>