<?xml version="1.0" encoding="UTF-8" standalone="no"?><!DOCTYPE svg PUBLIC "-//W3C//DTD SVG 1.1//EN" "http://www.w3.org/Graphics/SVG/1.1/DTD/svg11.dtd"><svg width="100%" height="100%" viewBox="0 0 432 216" version="1.1" xmlns="http://www.w3.org/2000/svg" xmlns:xlink="http://www.w3.org/1999/xlink" xml:space="preserve" xmlns:serif="http://www.serif.com/" style="fill-rule:evenodd;clip-rule:evenodd;stroke-linecap:round;stroke-linejoin:round;stroke-miterlimit:1.5;"><g><path d="M254.64,77.28l79.92,79.92l157.2,-157.2" style="fill:none;stroke:#000;stroke-width:27px;"/><path d="M49.546,152.746l83.054,83.054l140.28,-140.28" style="fill:none;stroke:#000;stroke-width:27px;"/><path d="M-57.36,23.654l79.92,79.92l157.2,-157.2" style="fill:none;stroke:#000;stroke-width:27px;"/><path d="M-14.986,-18.72l79.92,79.92l157.2,-157.2" style="fill:none;stroke:#000;stroke-width:27px;"/><path d="M121.652,149.252l162.089,-162.089" style="fill:none;stroke:#000;stroke-width:27px;"/><path d="M246.722,170.748l79.92,79.92l157.2,-157.2" style="fill:none;stroke:#000;stroke-width:27px;"/><path d="M119.358,6.776l96.798,96.798l157.2,-157.2" style="fill:none;stroke:#000;stroke-width:27px;"/><path d="M336.96,63.24l62.88,62.88l157.2,-157.2" style="fill:none;stroke:#000;stroke-width:27px;"/><path d="M377.76,-15.36l62.88,62.88l157.2,-157.2" style="fill:none;stroke:#000;stroke-width:27px;"/><path d="M-121.498,163.951l79.92,79.92l199.015,-199.016" style="fill:none;stroke:#000;stroke-width:27px;"/><path d="M87.346,114.946l144.734,144.734l267.12,-267.12" style="fill:none;stroke:#000;stroke-width:27px;"/></g></svg>