<?xml version="1.0" encoding="UTF-8" standalone="no"?><!DOCTYPE svg PUBLIC "-//W3C//DTD SVG 1.1//EN" "http://www.w3.org/Graphics/SVG/1.1/DTD/svg11.dtd"><svg width="100%" height="100%" viewBox="0 0 432 216" version="1.1" xmlns="http://www.w3.org/2000/svg" xmlns:xlink="http://www.w3.org/1999/xlink" xml:space="preserve" xmlns:serif="http://www.serif.com/" style="fill-rule:evenodd;clip-rule:evenodd;stroke-linejoin:round;stroke-miterlimit:2;"><g><path d="M53.826,-156.092c1.697,-6.334 -2.067,-12.853 -8.4,-14.55l-11.823,-3.168c-6.333,-1.697 -12.853,2.067 -14.55,8.4l-67.552,252.107c-1.697,6.333 2.067,12.853 8.401,14.55l11.822,3.168c6.334,1.697 12.853,-2.067 14.55,-8.401l67.552,-252.106Z"/><path d="M88.097,-75.351c1.697,-6.334 -2.067,-12.853 -8.401,-14.55l-11.823,-3.168c-6.333,-1.697 -12.853,2.067 -14.55,8.4l-92.429,344.952c-1.697,6.333 2.067,12.853 8.4,14.55l11.823,3.167c6.334,1.697 12.853,-2.067 14.55,-8.4l92.43,-344.951Z"/><path d="M158.146,-128.14c1.697,-6.333 -2.067,-12.853 -8.4,-14.55l-11.823,-3.168c-6.334,-1.697 -12.853,2.067 -14.55,8.401l-55.16,205.858c-1.697,6.333 2.067,12.853 8.401,14.55l11.823,3.168c6.333,1.697 12.853,-2.067 14.55,-8.401l55.159,-205.858Z"/><path d="M92.178,118.055c1.697,-6.333 -2.067,-12.853 -8.4,-14.55l-11.823,-3.168c-6.333,-1.697 -12.853,2.067 -14.55,8.401l-44.351,165.521c-1.697,6.333 2.067,12.853 8.4,14.55l11.823,3.168c6.334,1.697 12.853,-2.067 14.55,-8.401l44.351,-165.521Z"/><path d="M210.306,-114.164c1.697,-6.333 -2.067,-12.853 -8.4,-14.55l-11.823,-3.168c-6.334,-1.697 -12.853,2.067 -14.55,8.401l-38.947,145.352c-1.697,6.334 2.067,12.853 8.4,14.55l11.823,3.168c6.333,1.697 12.853,-2.067 14.55,-8.4l38.947,-145.353Z"/><path d="M160.551,71.526c1.697,-6.333 -2.067,-12.853 -8.401,-14.55l-11.823,-3.168c-6.333,-1.697 -12.853,2.067 -14.55,8.4l-60.563,226.027c-1.697,6.333 2.067,12.853 8.4,14.55l11.823,3.168c6.334,1.697 12.853,-2.067 14.55,-8.4l60.564,-226.027Z"/><path d="M262.466,-100.187c1.697,-6.334 -2.067,-12.853 -8.4,-14.55l-11.823,-3.168c-6.334,-1.697 -12.853,2.067 -14.55,8.4l-67.645,252.454c-1.697,6.334 2.067,12.853 8.4,14.55l11.823,3.168c6.334,1.697 12.853,-2.067 14.55,-8.4l67.645,-252.454Z"/><path d="M184.013,192.604c1.697,-6.333 -2.067,-12.853 -8.4,-14.55l-11.823,-3.168c-6.334,-1.697 -12.853,2.067 -14.55,8.4l-31.866,118.925c-1.697,6.334 2.067,12.853 8.4,14.55l11.823,3.168c6.334,1.697 12.853,-2.067 14.55,-8.4l31.866,-118.925Z"/><path d="M314.626,-86.211c1.697,-6.334 -2.067,-12.853 -8.4,-14.55l-11.823,-3.168c-6.334,-1.697 -12.853,2.067 -14.55,8.4l-31.214,116.491c-1.697,6.333 2.067,12.853 8.401,14.55l11.823,3.168c6.333,1.697 12.853,-2.067 14.55,-8.401l31.213,-116.49Z"/><path d="M272.604,70.616c1.697,-6.333 -2.067,-12.852 -8.4,-14.55l-11.823,-3.167c-6.333,-1.697 -12.853,2.067 -14.55,8.4l-68.297,254.888c-1.697,6.334 2.067,12.853 8.4,14.55l11.823,3.168c6.334,1.697 12.853,-2.067 14.55,-8.4l68.297,-254.889Z"/><path d="M366.786,-72.235c1.697,-6.333 -2.067,-12.853 -8.4,-14.55l-11.823,-3.168c-6.334,-1.697 -12.853,2.067 -14.55,8.4l-42.022,156.828c-1.697,6.334 2.067,12.853 8.4,14.55l11.823,3.168c6.334,1.697 12.853,-2.067 14.55,-8.4l42.022,-156.828Z"/><path d="M313.956,124.93c1.697,-6.334 -2.067,-12.853 -8.4,-14.55l-11.823,-3.168c-6.334,-1.697 -12.853,2.067 -14.55,8.4l-57.489,214.552c-1.697,6.333 2.067,12.853 8.4,14.55l11.823,3.168c6.334,1.697 12.853,-2.067 14.55,-8.401l57.489,-214.551Z"/><path d="M418.946,-58.259c1.697,-6.333 -2.067,-12.853 -8.4,-14.55l-11.823,-3.168c-6.334,-1.697 -12.853,2.067 -14.55,8.401l-62.986,235.067c-1.697,6.334 2.067,12.853 8.4,14.55l11.823,3.168c6.333,1.697 12.853,-2.067 14.55,-8.4l62.986,-235.068Z"/><path d="M345.152,217.146c1.697,-6.333 -2.067,-12.853 -8.401,-14.55l-11.823,-3.168c-6.333,-1.697 -12.853,2.067 -14.55,8.4l-36.524,136.312c-1.697,6.333 2.067,12.853 8.4,14.55l11.823,3.168c6.334,1.697 12.853,-2.067 14.55,-8.401l36.525,-136.311Z"/><path d="M471.106,-44.283c1.697,-6.333 -2.067,-12.853 -8.4,-14.55l-11.823,-3.167c-6.334,-1.697 -12.853,2.067 -14.55,8.4l-46.681,174.214c-1.697,6.334 2.067,12.853 8.401,14.55l11.823,3.168c6.333,1.697 12.853,-2.067 14.55,-8.4l46.68,-174.215Z"/><path d="M413.617,170.269c1.697,-6.333 -2.067,-12.853 -8.4,-14.55l-11.823,-3.168c-6.333,-1.697 -12.853,2.067 -14.55,8.4l-52.83,197.165c-1.697,6.334 2.067,12.853 8.4,14.55l11.823,3.168c6.333,1.697 12.853,-2.067 14.55,-8.4l52.83,-197.165Z"/><path d="M484.878,112.96c1.697,-6.334 -2.067,-12.853 -8.4,-14.55l-11.823,-3.168c-6.334,-1.697 -12.853,2.067 -14.55,8.4l-71.931,268.45c-1.697,6.334 2.067,12.853 8.4,14.55l11.823,3.168c6.333,1.697 12.853,-2.067 14.55,-8.4l71.931,-268.45Z"/></g></svg>