<?xml version="1.0" encoding="UTF-8" standalone="no"?><!DOCTYPE svg PUBLIC "-//W3C//DTD SVG 1.1//EN" "http://www.w3.org/Graphics/SVG/1.1/DTD/svg11.dtd"><svg width="100%" height="100%" viewBox="0 0 432 216" version="1.1" xmlns="http://www.w3.org/2000/svg" xmlns:xlink="http://www.w3.org/1999/xlink" xml:space="preserve" xmlns:serif="http://www.serif.com/" style="fill-rule:evenodd;clip-rule:evenodd;stroke-linejoin:round;stroke-miterlimit:2;"><g><path d="M169.982,126.672c1.727,-0.998 3.835,-1.081 5.636,-0.223c1.801,0.859 3.064,2.548 3.377,4.519c2.282,15.753 1.488,32.217 -2.89,48.558c-17.21,64.229 -83.329,102.402 -147.558,85.192c-64.229,-17.21 -102.402,-83.328 -85.192,-147.557c17.21,-64.229 83.328,-102.403 147.557,-85.193c32.195,8.627 57.843,29.541 73.251,56.347c1.635,2.889 0.636,6.557 -2.24,8.217c-18.299,10.578 -80.596,46.545 -99.193,57.282c-1.401,0.809 -3.067,1.028 -4.629,0.61c-1.563,-0.419 -2.896,-1.442 -3.705,-2.843c-6.63,-11.483 -22.519,-39.005 -32.016,-55.454c-4.159,-7.203 -13.368,-9.67 -20.57,-5.512c-0.001,0 -0.001,0.001 -0.002,0.001c-3.459,1.997 -5.983,5.286 -7.017,9.144c-1.033,3.858 -0.492,7.969 1.505,11.428c8.879,15.38 23.855,41.318 35.13,60.848c8.282,14.345 26.625,19.259 40.969,10.977c30.462,-17.587 79.142,-45.692 97.587,-56.341Z"/><path d="M326.248,-32.471c1.728,-0.998 3.836,-1.081 5.637,-0.223c1.801,0.859 3.064,2.548 3.377,4.519c2.281,15.753 1.488,32.216 -2.891,48.558c-17.21,64.228 -83.328,102.402 -147.557,85.192c-64.229,-17.21 -102.402,-83.329 -85.192,-147.558c17.21,-64.228 83.328,-102.402 147.557,-85.192c32.194,8.627 57.842,29.541 73.25,56.346c1.636,2.89 0.636,6.558 -2.239,8.218c-18.299,10.578 -80.597,46.545 -99.194,57.282c-1.401,0.809 -3.066,1.028 -4.629,0.61c-1.563,-0.419 -2.895,-1.442 -3.704,-2.843c-6.63,-11.483 -22.52,-39.005 -32.017,-55.454c-4.158,-7.203 -13.368,-9.67 -20.57,-5.512c0,0 -0.001,0 -0.001,0.001c-3.459,1.997 -5.983,5.286 -7.017,9.144c-1.034,3.858 -0.493,7.969 1.504,11.428c8.88,15.38 23.855,41.318 35.131,60.848c8.282,14.344 26.624,19.259 40.969,10.977c30.462,-17.587 79.141,-45.692 97.586,-56.341Z"/><path d="M446.755,165.312c1.727,-0.998 3.835,-1.081 5.636,-0.223c1.801,0.859 3.064,2.548 3.378,4.519c2.281,15.753 1.487,32.217 -2.891,48.558c-17.21,64.229 -83.328,102.402 -147.557,85.192c-64.229,-17.21 -102.403,-83.328 -85.193,-147.557c17.21,-64.229 83.329,-102.403 147.558,-85.193c32.194,8.627 57.842,29.541 73.25,56.347c1.636,2.889 0.636,6.557 -2.239,8.217c-18.3,10.578 -80.597,46.545 -99.194,57.282c-1.401,0.809 -3.066,1.028 -4.629,0.61c-1.563,-0.419 -2.895,-1.442 -3.704,-2.843c-6.63,-11.483 -22.52,-39.005 -32.017,-55.454c-4.158,-7.203 -13.368,-9.67 -20.57,-5.512c-0.001,0 -0.001,0.001 -0.002,0.001c-3.459,1.997 -5.983,5.286 -7.016,9.144c-1.034,3.858 -0.493,7.969 1.504,11.428c8.879,15.38 23.855,41.318 35.13,60.848c8.282,14.345 26.625,19.259 40.969,10.977c30.462,-17.587 79.142,-45.692 97.587,-56.341Z"/><path d="M575.395,-10.608c1.727,-0.998 3.835,-1.081 5.636,-0.223c1.801,0.859 3.064,2.548 3.378,4.519c2.281,15.753 1.487,32.217 -2.891,48.558c-17.21,64.229 -83.328,102.402 -147.557,85.192c-64.229,-17.21 -102.403,-83.328 -85.193,-147.557c17.21,-64.229 83.329,-102.403 147.558,-85.193c32.194,8.627 57.842,29.541 73.25,56.347c1.636,2.889 0.636,6.557 -2.239,8.217c-18.3,10.578 -80.597,46.545 -99.194,57.282c-1.401,0.809 -3.066,1.028 -4.629,0.61c-1.563,-0.419 -2.895,-1.442 -3.704,-2.843c-6.63,-11.483 -22.52,-39.005 -32.017,-55.454c-4.158,-7.203 -13.368,-9.67 -20.57,-5.512c-0.001,0 -0.001,0.001 -0.002,0.001c-3.459,1.997 -5.983,5.286 -7.016,9.144c-1.034,3.858 -0.493,7.969 1.504,11.428c8.879,15.38 23.855,41.318 35.13,60.848c8.282,14.345 26.625,19.259 40.969,10.977c30.462,-17.587 79.142,-45.692 97.587,-56.341Z"/></g></svg>