<?xml version="1.0" encoding="UTF-8" standalone="no"?><!DOCTYPE svg PUBLIC "-//W3C//DTD SVG 1.1//EN" "http://www.w3.org/Graphics/SVG/1.1/DTD/svg11.dtd"><svg width="100%" height="100%" viewBox="0 0 432 216" version="1.1" xmlns="http://www.w3.org/2000/svg" xmlns:xlink="http://www.w3.org/1999/xlink" xml:space="preserve" xmlns:serif="http://www.serif.com/" style="fill-rule:evenodd;clip-rule:evenodd;stroke-linejoin:round;stroke-miterlimit:2;"><g><path d="M77.57,16.998c74.025,-22.619 127.294,-63.337 134.124,-40.983c18.849,61.688 -25.947,130.134 -99.972,152.753c-74.025,22.619 -149.427,-9.1 -168.276,-70.788c-6.831,-22.354 60.099,-18.363 134.124,-40.982Zm3.971,12.995c65.051,-19.877 112.141,-54.747 117.865,-36.014c5.724,18.732 -40.483,56.494 -105.534,76.371c-65.051,19.876 -124.472,14.39 -130.196,-4.343c-5.724,-18.732 52.813,-16.137 117.865,-36.014Z"/><path d="M323.965,-0.04c74.026,-22.619 127.294,-63.336 134.125,-40.982c18.849,61.687 -25.947,130.134 -99.972,152.752c-74.026,22.619 -149.428,-9.1 -168.277,-70.787c-6.83,-22.354 60.099,-18.364 134.124,-40.983Zm3.971,12.995c65.052,-19.877 112.141,-54.747 117.865,-36.014c5.724,18.732 -40.482,56.494 -105.534,76.371c-65.051,19.877 -124.472,14.39 -130.196,-4.342c-5.724,-18.733 52.814,-16.138 117.865,-36.015Z"/><path d="M197.972,130.366c74.025,-22.618 127.294,-63.336 134.124,-40.982c18.85,61.688 -25.946,130.134 -99.972,152.753c-74.025,22.618 -149.427,-9.1 -168.276,-70.788c-6.83,-22.354 60.099,-18.364 134.124,-40.983Zm3.971,12.995c65.051,-19.876 112.141,-54.746 117.865,-36.014c5.724,18.732 -40.482,56.494 -105.534,76.371c-65.051,19.877 -124.472,14.39 -130.196,-4.342c-5.724,-18.733 52.814,-16.138 117.865,-36.015Z"/><path d="M-54.74,130.366c74.026,-22.618 127.294,-63.336 134.125,-40.982c18.849,61.688 -25.947,130.134 -99.972,152.753c-74.026,22.618 -149.428,-9.1 -168.277,-70.788c-6.83,-22.354 60.099,-18.364 134.124,-40.983Zm3.971,12.995c65.052,-19.876 112.141,-54.746 117.865,-36.014c5.724,18.732 -40.482,56.494 -105.534,76.371c-65.051,19.877 -124.472,14.39 -130.196,-4.342c-5.724,-18.733 52.814,-16.138 117.865,-36.015Z"/><path d="M431.818,117.248c74.025,-22.619 127.294,-63.336 134.124,-40.982c18.849,61.687 -25.947,130.133 -99.972,152.752c-74.025,22.619 -149.427,-9.1 -168.276,-70.787c-6.831,-22.354 60.099,-18.364 134.124,-40.983Zm3.971,12.995c65.051,-19.877 112.141,-54.747 117.865,-36.014c5.723,18.732 -40.483,56.494 -105.534,76.371c-65.052,19.877 -124.473,14.39 -130.196,-4.342c-5.724,-18.733 52.813,-16.138 117.865,-36.015Z"/></g></svg>