<?xml version="1.0" encoding="UTF-8" standalone="no"?><!DOCTYPE svg PUBLIC "-//W3C//DTD SVG 1.1//EN" "http://www.w3.org/Graphics/SVG/1.1/DTD/svg11.dtd"><svg width="100%" height="100%" viewBox="0 0 432 216" version="1.1" xmlns="http://www.w3.org/2000/svg" xmlns:xlink="http://www.w3.org/1999/xlink" xml:space="preserve" xmlns:serif="http://www.serif.com/" style="fill-rule:evenodd;clip-rule:evenodd;stroke-linejoin:round;stroke-miterlimit:2;"><g><path d="M423.39,51.342c0.373,-2.388 1.889,-4.444 4.061,-5.507c2.171,-1.063 4.725,-0.998 6.84,0.173c21.748,12.122 36.469,35.351 36.469,61.992c0,25.887 -15.364,46.379 -34.638,60.936c-7.817,5.904 -18.161,8.79 -29.072,9.669c-2.135,0.181 -4.243,-0.573 -5.779,-2.066c-1.536,-1.493 -2.35,-3.579 -2.23,-5.718c0.132,-2.384 0.199,-4.785 0.199,-7.201c0,-16.675 -3.214,-32.605 -9.058,-47.205c-1.174,-2.907 -0.388,-6.238 1.961,-8.314c16.325,-14.402 27.706,-34.285 31.247,-56.759Z"/><path d="M351.08,56.524c-2.508,2.371 -6.321,2.695 -9.193,0.78c-20.063,-13.241 -44.093,-20.944 -69.907,-20.944c-10.118,0 -19.961,1.183 -29.396,3.421c-2.273,0.533 -4.665,-0.037 -6.452,-1.538c-1.788,-1.501 -2.763,-3.758 -2.63,-6.089c0.526,-9.659 2.364,-19.196 4.747,-26.277c12.738,-37.858 48.542,-65.157 90.671,-65.157c40.621,0 75.362,25.38 89.216,61.134c3.029,7.816 5.187,18.966 5.983,29.064c0.189,2.343 -0.747,4.636 -2.521,6.179c-1.774,1.542 -4.175,2.15 -6.47,1.638c-4.925,-1.084 -10.04,-1.655 -15.288,-1.655c-18.881,0 -36.049,7.394 -48.76,19.444Z"/><path d="M224.397,45.576c2.087,-0.836 4.441,-0.676 6.396,0.435c1.955,1.11 3.298,3.05 3.65,5.271c7.17,45.708 46.767,80.718 94.477,80.718c0,0 0,0 0,0c2.463,0 4.686,1.472 5.649,3.738c9.668,22.718 30.853,39.366 56.205,42.604c2.011,0.264 3.826,1.343 5.02,2.983c1.193,1.641 1.661,3.699 1.294,5.694c-10.993,59.074 -62.862,103.861 -125.108,103.861c-33.395,0 -63.803,-12.891 -86.509,-33.97c-1.597,-1.501 -2.445,-3.635 -2.314,-5.823c0.131,-2.188 1.228,-4.205 2.993,-5.505c23.764,-17.421 39.21,-45.532 39.21,-77.222c0,-15.715 -3.798,-30.549 -10.528,-43.634c-0.724,-1.396 -0.985,-2.986 -0.745,-4.54c1.26,-8.325 1.913,-16.847 1.913,-25.52c0,-12.704 -1.402,-25.084 -4.062,-36.992c-0.763,-3.328 0.851,-6.748 3.907,-8.273c2.795,-1.376 5.646,-2.653 8.552,-3.825Z"/><path d="M339.138,131.459c-3.634,0.372 -6.994,-1.966 -7.909,-5.502c-1.511,-5.734 -2.309,-11.753 -2.309,-17.957c0,-15.162 4.768,-29.219 12.888,-40.751c1.226,-1.739 3.142,-2.865 5.259,-3.089c2.116,-0.224 4.225,0.476 5.788,1.921c12.149,11.249 22.858,24.348 31.907,39.58c1.984,3.354 1.026,7.672 -2.19,9.874c-12.657,8.585 -27.462,14.224 -43.434,15.924Z"/><path d="M77.185,248.269c2.539,1.675 3.793,4.734 3.163,7.709c-0.631,2.976 -3.019,5.262 -6.019,5.763c-9.001,1.488 -18.243,2.259 -27.663,2.259c-93.458,0 -169.334,-75.876 -169.334,-169.334c0,-93.458 75.876,-169.334 169.334,-169.334c76.741,0 141.628,51.16 162.382,121.205c0.941,3.216 -0.397,6.663 -3.261,8.402c-10.772,6.577 -20.492,14.71 -28.844,24.089c-2.142,2.416 -5.603,3.165 -8.552,1.849c-11.83,-5.246 -24.913,-8.157 -38.671,-8.157c-52.785,0 -95.64,42.855 -95.64,95.64c0,33.386 17.144,62.8 43.105,79.909Z"/><path d="M169.371,88.389c2.268,-3.049 6.477,-3.882 9.735,-1.928c13.587,8.215 24.969,19.717 33.044,33.402c1,1.713 1.27,3.755 0.75,5.669c-9.297,33.946 -25.673,62.402 -46.587,87.337c-1.675,1.99 -4.273,2.954 -6.842,2.538c-2.568,-0.415 -4.729,-2.149 -5.691,-4.567c-5.844,-14.606 -9.06,-30.54 -9.06,-47.22c0,-28.141 9.154,-54.161 24.651,-75.231Z"/></g></svg>