<?xml version="1.0" encoding="UTF-8" standalone="no"?><!DOCTYPE svg PUBLIC "-//W3C//DTD SVG 1.1//EN" "http://www.w3.org/Graphics/SVG/1.1/DTD/svg11.dtd"><svg width="100%" height="100%" viewBox="0 0 432 216" version="1.1" xmlns="http://www.w3.org/2000/svg" xmlns:xlink="http://www.w3.org/1999/xlink" xml:space="preserve" xmlns:serif="http://www.serif.com/" style="fill-rule:evenodd;clip-rule:evenodd;stroke-linejoin:round;stroke-miterlimit:2;"><g><g><path d="M399.191,-11.316c23.838,0 40.628,-7.62 49.792,-13.261c1.52,-0.955 3.479,-0.838 4.875,0.291c1.396,1.13 1.92,3.021 1.304,4.707c-6.629,18.005 -29.19,31.28 -55.971,31.28c-22.99,0 -43.722,-11.202 -51.342,-26.681c-0.786,-1.595 -0.48,-3.513 0.764,-4.784c1.243,-1.271 3.153,-1.619 4.765,-0.87c8.923,4.045 24.606,9.318 45.813,9.318Z"/><path d="M479.186,8.408c23.838,0 40.629,-7.62 49.793,-13.261c1.52,-0.955 3.479,-0.838 4.875,0.291c1.396,1.13 1.92,3.021 1.304,4.707c-6.629,18.005 -29.19,31.28 -55.972,31.28c-22.99,0 -43.722,-11.202 -51.342,-26.681c-0.785,-1.595 -0.479,-3.513 0.764,-4.784c1.244,-1.271 3.153,-1.619 4.766,-0.87c8.923,4.045 24.606,9.318 45.812,9.318Z"/></g><g><path d="M185.2,-10.052c23.838,0 40.628,-7.62 49.792,-13.262c1.52,-0.954 3.48,-0.837 4.875,0.292c1.396,1.129 1.92,3.02 1.304,4.707c-6.629,18.004 -29.19,31.28 -55.971,31.28c-22.99,0 -43.722,-11.202 -51.342,-26.682c-0.786,-1.595 -0.479,-3.512 0.764,-4.783c1.243,-1.271 3.153,-1.62 4.765,-0.87c8.923,4.044 24.606,9.318 45.813,9.318Z"/><path d="M265.195,9.672c23.838,0 40.629,-7.62 49.793,-13.262c1.52,-0.954 3.479,-0.837 4.875,0.292c1.396,1.129 1.92,3.02 1.304,4.707c-6.629,18.004 -29.19,31.28 -55.972,31.28c-22.99,0 -43.722,-11.202 -51.342,-26.682c-0.785,-1.595 -0.479,-3.512 0.764,-4.783c1.244,-1.272 3.154,-1.62 4.766,-0.87c8.923,4.044 24.606,9.318 45.812,9.318Z"/><path d="M345.191,29.396c23.838,0 40.628,-7.62 49.792,-13.262c1.52,-0.954 3.479,-0.837 4.875,0.292c1.396,1.129 1.92,3.02 1.304,4.707c-6.629,18.004 -29.19,31.279 -55.971,31.279c-22.99,0 -43.722,-11.201 -51.342,-26.681c-0.786,-1.595 -0.48,-3.512 0.764,-4.783c1.243,-1.272 3.153,-1.62 4.765,-0.87c8.923,4.044 24.606,9.318 45.813,9.318Z"/><path d="M425.186,49.12c23.838,0 40.629,-7.62 49.793,-13.262c1.52,-0.954 3.479,-0.837 4.875,0.292c1.396,1.129 1.92,3.02 1.304,4.706c-6.629,18.005 -29.19,31.28 -55.972,31.28c-22.99,0 -43.722,-11.201 -51.342,-26.681c-0.785,-1.595 -0.479,-3.512 0.764,-4.783c1.244,-1.272 3.153,-1.62 4.766,-0.87c8.923,4.044 24.606,9.318 45.812,9.318Z"/></g><g><path d="M-28.791,-8.789c23.838,0 40.628,-7.62 49.792,-13.261c1.521,-0.955 3.48,-0.838 4.875,0.291c1.396,1.129 1.92,3.021 1.304,4.707c-6.629,18.004 -29.19,31.28 -55.971,31.28c-22.99,0 -43.722,-11.202 -51.342,-26.682c-0.786,-1.595 -0.479,-3.512 0.764,-4.783c1.243,-1.271 3.153,-1.62 4.765,-0.87c8.923,4.045 24.606,9.318 45.813,9.318Z"/><path d="M51.204,10.935c23.838,0 40.629,-7.62 49.793,-13.261c1.52,-0.955 3.479,-0.838 4.875,0.291c1.396,1.129 1.92,3.021 1.304,4.707c-6.629,18.004 -29.19,31.28 -55.972,31.28c-22.99,0 -43.722,-11.202 -51.342,-26.682c-0.785,-1.595 -0.479,-3.512 0.764,-4.783c1.244,-1.271 3.154,-1.62 4.766,-0.87c8.923,4.045 24.606,9.318 45.812,9.318Z"/><path d="M131.2,30.659c23.838,0 40.628,-7.62 49.792,-13.261c1.52,-0.955 3.48,-0.838 4.875,0.291c1.396,1.129 1.92,3.021 1.304,4.707c-6.629,18.004 -29.19,31.28 -55.971,31.28c-22.99,0 -43.722,-11.202 -51.342,-26.682c-0.786,-1.595 -0.479,-3.512 0.764,-4.783c1.243,-1.271 3.153,-1.62 4.765,-0.87c8.923,4.045 24.606,9.318 45.813,9.318Z"/><path d="M211.195,50.383c23.838,0 40.629,-7.62 49.793,-13.261c1.52,-0.955 3.479,-0.838 4.875,0.291c1.396,1.129 1.92,3.021 1.304,4.707c-6.629,18.004 -29.19,31.28 -55.972,31.28c-22.99,0 -43.722,-11.202 -51.342,-26.682c-0.785,-1.595 -0.479,-3.512 0.764,-4.783c1.244,-1.271 3.154,-1.62 4.766,-0.87c8.923,4.045 24.606,9.318 45.812,9.318Z"/><path d="M291.191,70.107c23.838,0 40.628,-7.62 49.792,-13.261c1.52,-0.955 3.479,-0.838 4.875,0.291c1.396,1.129 1.92,3.02 1.304,4.707c-6.629,18.004 -29.19,31.28 -55.971,31.28c-22.99,0 -43.722,-11.202 -51.342,-26.682c-0.786,-1.595 -0.48,-3.512 0.764,-4.783c1.243,-1.271 3.153,-1.62 4.765,-0.87c8.923,4.045 24.606,9.318 45.813,9.318Z"/><path d="M371.186,89.831c23.838,0 40.629,-7.62 49.793,-13.261c1.52,-0.955 3.479,-0.838 4.875,0.291c1.396,1.129 1.92,3.02 1.304,4.707c-6.629,18.004 -29.19,31.28 -55.972,31.28c-22.99,0 -43.722,-11.202 -51.342,-26.682c-0.785,-1.595 -0.479,-3.512 0.764,-4.783c1.244,-1.271 3.153,-1.62 4.766,-0.87c8.923,4.045 24.606,9.318 45.812,9.318Z"/><path d="M451.182,109.555c23.838,0 40.628,-7.62 49.792,-13.261c1.52,-0.955 3.479,-0.838 4.875,0.291c1.396,1.129 1.92,3.02 1.304,4.707c-6.629,18.004 -29.19,31.28 -55.971,31.28c-22.991,0 -43.722,-11.202 -51.342,-26.682c-0.786,-1.595 -0.48,-3.512 0.764,-4.783c1.243,-1.271 3.153,-1.62 4.765,-0.87c8.923,4.045 24.606,9.318 45.813,9.318Z"/></g><g><path d="M-2.796,51.646c23.838,0 40.629,-7.62 49.793,-13.261c1.52,-0.955 3.479,-0.838 4.875,0.291c1.396,1.13 1.92,3.021 1.304,4.707c-6.629,18.005 -29.19,31.28 -55.972,31.28c-22.99,0 -43.722,-11.202 -51.342,-26.681c-0.785,-1.595 -0.479,-3.513 0.764,-4.784c1.244,-1.271 3.154,-1.619 4.766,-0.87c8.923,4.045 24.606,9.318 45.812,9.318Z"/><path d="M77.2,71.37c23.838,0 40.628,-7.62 49.792,-13.261c1.52,-0.955 3.48,-0.838 4.875,0.291c1.396,1.129 1.92,3.021 1.304,4.707c-6.629,18.005 -29.19,31.28 -55.971,31.28c-22.99,0 -43.722,-11.202 -51.342,-26.681c-0.786,-1.595 -0.479,-3.513 0.764,-4.784c1.243,-1.271 3.153,-1.619 4.765,-0.87c8.923,4.045 24.606,9.318 45.813,9.318Z"/><path d="M157.195,91.094c23.838,0 40.629,-7.62 49.793,-13.261c1.52,-0.955 3.479,-0.838 4.875,0.291c1.396,1.129 1.92,3.021 1.304,4.707c-6.629,18.005 -29.19,31.28 -55.972,31.28c-22.99,0 -43.722,-11.202 -51.342,-26.681c-0.785,-1.595 -0.479,-3.513 0.764,-4.784c1.244,-1.271 3.154,-1.619 4.766,-0.87c8.923,4.045 24.606,9.318 45.812,9.318Z"/><path d="M237.191,110.818c23.838,0 40.628,-7.62 49.792,-13.261c1.52,-0.955 3.479,-0.838 4.875,0.291c1.396,1.129 1.92,3.021 1.304,4.707c-6.629,18.004 -29.19,31.28 -55.971,31.28c-22.99,0 -43.722,-11.202 -51.342,-26.681c-0.786,-1.595 -0.48,-3.513 0.764,-4.784c1.243,-1.271 3.153,-1.62 4.765,-0.87c8.923,4.045 24.606,9.318 45.813,9.318Z"/><path d="M317.186,130.542c23.838,0 40.629,-7.62 49.793,-13.261c1.52,-0.955 3.479,-0.838 4.875,0.291c1.396,1.129 1.92,3.021 1.304,4.707c-6.629,18.004 -29.19,31.28 -55.972,31.28c-22.99,0 -43.722,-11.202 -51.342,-26.681c-0.785,-1.596 -0.479,-3.513 0.764,-4.784c1.244,-1.271 3.153,-1.62 4.766,-0.87c8.923,4.045 24.606,9.318 45.812,9.318Z"/><path d="M397.182,150.266c23.838,0 40.628,-7.62 49.792,-13.261c1.52,-0.955 3.479,-0.838 4.875,0.291c1.396,1.129 1.92,3.021 1.304,4.707c-6.629,18.004 -29.19,31.28 -55.971,31.28c-22.991,0 -43.722,-11.202 -51.342,-26.681c-0.786,-1.596 -0.48,-3.513 0.764,-4.784c1.243,-1.271 3.153,-1.62 4.765,-0.87c8.923,4.045 24.606,9.318 45.813,9.318Z"/><path d="M477.177,169.99c23.838,0 40.628,-7.62 49.792,-13.261c1.521,-0.955 3.48,-0.838 4.876,0.291c1.396,1.129 1.92,3.021 1.304,4.707c-6.629,18.004 -29.191,31.28 -55.972,31.28c-22.99,0 -43.722,-11.202 -51.342,-26.681c-0.785,-1.596 -0.479,-3.513 0.764,-4.784c1.244,-1.271 3.153,-1.62 4.766,-0.87c8.923,4.045 24.606,9.318 45.812,9.318Z"/></g><g><path d="M-56.796,92.358c23.838,0 40.629,-7.62 49.793,-13.262c1.52,-0.954 3.479,-0.837 4.875,0.292c1.396,1.129 1.92,3.02 1.304,4.706c-6.629,18.005 -29.19,31.28 -55.972,31.28c-22.99,0 -43.722,-11.201 -51.342,-26.681c-0.785,-1.595 -0.479,-3.512 0.764,-4.783c1.244,-1.272 3.154,-1.62 4.766,-0.87c8.923,4.044 24.606,9.318 45.812,9.318Z"/><path d="M23.2,112.082c23.838,0 40.628,-7.62 49.792,-13.262c1.52,-0.954 3.48,-0.837 4.875,0.292c1.396,1.129 1.92,3.02 1.304,4.706c-6.629,18.005 -29.19,31.28 -55.971,31.28c-22.99,0 -43.722,-11.201 -51.342,-26.681c-0.786,-1.595 -0.479,-3.512 0.764,-4.783c1.243,-1.272 3.153,-1.62 4.765,-0.87c8.923,4.044 24.606,9.318 45.813,9.318Z"/><path d="M103.195,131.806c23.838,0 40.629,-7.62 49.793,-13.262c1.52,-0.954 3.479,-0.837 4.875,0.292c1.396,1.129 1.92,3.02 1.304,4.706c-6.629,18.005 -29.19,31.28 -55.972,31.28c-22.99,0 -43.722,-11.201 -51.342,-26.681c-0.785,-1.595 -0.479,-3.512 0.764,-4.783c1.244,-1.272 3.154,-1.62 4.766,-0.87c8.923,4.044 24.606,9.318 45.812,9.318Z"/><path d="M183.191,151.53c23.838,0 40.628,-7.62 49.792,-13.262c1.52,-0.954 3.479,-0.837 4.875,0.292c1.396,1.129 1.92,3.02 1.304,4.706c-6.629,18.005 -29.19,31.28 -55.971,31.28c-22.99,0 -43.722,-11.202 -51.342,-26.681c-0.786,-1.595 -0.48,-3.512 0.764,-4.783c1.243,-1.272 3.153,-1.62 4.765,-0.87c8.923,4.044 24.606,9.318 45.813,9.318Z"/><path d="M263.186,171.254c23.838,0 40.629,-7.62 49.793,-13.262c1.52,-0.954 3.479,-0.837 4.875,0.292c1.396,1.129 1.92,3.02 1.304,4.706c-6.629,18.005 -29.19,31.28 -55.972,31.28c-22.99,0 -43.722,-11.202 -51.342,-26.681c-0.785,-1.595 -0.479,-3.512 0.764,-4.783c1.244,-1.272 3.153,-1.62 4.766,-0.87c8.923,4.044 24.606,9.318 45.812,9.318Z"/><path d="M343.182,190.978c23.838,0 40.628,-7.62 49.792,-13.262c1.52,-0.954 3.479,-0.837 4.875,0.292c1.396,1.129 1.92,3.02 1.304,4.706c-6.629,18.005 -29.19,31.28 -55.971,31.28c-22.991,0 -43.722,-11.202 -51.342,-26.681c-0.786,-1.595 -0.48,-3.512 0.764,-4.783c1.243,-1.272 3.153,-1.62 4.765,-0.87c8.923,4.044 24.606,9.318 45.813,9.318Z"/><path d="M423.177,210.702c23.838,0 40.628,-7.62 49.792,-13.262c1.521,-0.954 3.48,-0.837 4.876,0.292c1.396,1.129 1.92,3.02 1.304,4.706c-6.629,18.005 -29.191,31.28 -55.972,31.28c-22.99,0 -43.722,-11.202 -51.342,-26.681c-0.785,-1.595 -0.479,-3.512 0.764,-4.784c1.244,-1.271 3.153,-1.619 4.766,-0.869c8.923,4.044 24.606,9.318 45.812,9.318Z"/></g><g><path d="M-30.8,152.793c23.838,0 40.628,-7.62 49.792,-13.261c1.52,-0.955 3.48,-0.838 4.875,0.291c1.396,1.129 1.92,3.02 1.304,4.707c-6.629,18.004 -29.19,31.28 -55.971,31.28c-22.99,0 -43.722,-11.202 -51.342,-26.682c-0.786,-1.595 -0.479,-3.512 0.764,-4.783c1.243,-1.271 3.153,-1.62 4.765,-0.87c8.923,4.045 24.606,9.318 45.813,9.318Z"/><path d="M49.195,172.517c23.838,0 40.629,-7.62 49.793,-13.261c1.52,-0.955 3.479,-0.838 4.875,0.291c1.396,1.129 1.92,3.02 1.304,4.707c-6.629,18.004 -29.19,31.28 -55.972,31.28c-22.99,0 -43.722,-11.202 -51.342,-26.682c-0.785,-1.595 -0.479,-3.512 0.764,-4.783c1.244,-1.271 3.154,-1.62 4.766,-0.87c8.923,4.045 24.606,9.318 45.812,9.318Z"/><path d="M129.191,192.241c23.838,0 40.628,-7.62 49.792,-13.261c1.52,-0.955 3.479,-0.838 4.875,0.291c1.396,1.129 1.92,3.02 1.304,4.707c-6.629,18.004 -29.19,31.28 -55.971,31.28c-22.99,0 -43.722,-11.202 -51.342,-26.682c-0.786,-1.595 -0.48,-3.512 0.764,-4.783c1.243,-1.271 3.153,-1.62 4.765,-0.87c8.923,4.045 24.606,9.318 45.813,9.318Z"/><path d="M209.186,211.965c23.838,0 40.629,-7.62 49.793,-13.261c1.52,-0.955 3.479,-0.838 4.875,0.291c1.396,1.129 1.92,3.02 1.304,4.707c-6.629,18.004 -29.19,31.28 -55.972,31.28c-22.99,0 -43.722,-11.202 -51.342,-26.682c-0.785,-1.595 -0.479,-3.512 0.764,-4.783c1.244,-1.271 3.153,-1.62 4.766,-0.87c8.923,4.045 24.606,9.318 45.812,9.318Z"/></g><g><path d="M-4.805,213.228c23.838,0 40.629,-7.62 49.793,-13.261c1.52,-0.955 3.479,-0.838 4.875,0.291c1.396,1.129 1.92,3.021 1.304,4.707c-6.629,18.004 -29.19,31.28 -55.972,31.28c-22.99,0 -43.722,-11.202 -51.342,-26.681c-0.785,-1.596 -0.479,-3.513 0.764,-4.784c1.244,-1.271 3.154,-1.62 4.766,-0.87c8.923,4.045 24.606,9.318 45.812,9.318Z"/></g></g></svg>