<?xml version="1.0" encoding="UTF-8" standalone="no"?><!DOCTYPE svg PUBLIC "-//W3C//DTD SVG 1.1//EN" "http://www.w3.org/Graphics/SVG/1.1/DTD/svg11.dtd"><svg width="100%" height="100%" viewBox="0 0 432 216" version="1.1" xmlns="http://www.w3.org/2000/svg" xmlns:xlink="http://www.w3.org/1999/xlink" xml:space="preserve" xmlns:serif="http://www.serif.com/" style="fill-rule:evenodd;clip-rule:evenodd;stroke-linejoin:round;stroke-miterlimit:2;"><g><g><path d="M-5.479,6.627c9.811,-1.561 19.043,5.137 20.604,14.948c1.561,9.811 -5.137,19.044 -14.948,20.604c-9.811,1.561 -19.044,-5.137 -20.605,-14.948c-1.56,-9.811 5.138,-19.043 14.949,-20.604Z"/><path d="M47.85,-1.858c9.811,-1.561 19.044,5.137 20.605,14.948c1.561,9.811 -5.138,19.044 -14.949,20.605c-9.811,1.561 -19.043,-5.137 -20.604,-14.948c-1.561,-9.812 5.137,-19.044 14.948,-20.605Z"/><path d="M101.179,-10.343c9.811,-1.561 19.044,5.137 20.605,14.948c1.561,9.811 -5.137,19.044 -14.948,20.605c-9.811,1.561 -19.044,-5.137 -20.605,-14.948c-1.561,-9.811 5.137,-19.044 14.948,-20.605Z"/><path d="M154.508,-18.828c9.811,-1.561 19.044,5.137 20.605,14.949c1.561,9.811 -5.137,19.043 -14.948,20.604c-9.811,1.561 -19.044,-5.137 -20.605,-14.948c-1.561,-9.811 5.137,-19.044 14.948,-20.605Z"/><path d="M207.838,-27.312c9.811,-1.561 19.043,5.137 20.604,14.948c1.561,9.811 -5.137,19.044 -14.948,20.604c-9.811,1.561 -19.044,-5.137 -20.605,-14.948c-1.56,-9.811 5.138,-19.043 14.949,-20.604Z"/><path d="M261.167,-35.797c9.811,-1.561 19.044,5.137 20.605,14.948c1.561,9.811 -5.138,19.044 -14.949,20.605c-9.811,1.561 -19.043,-5.137 -20.604,-14.948c-1.561,-9.812 5.137,-19.044 14.948,-20.605Z"/></g><g><path d="M28.652,48.55c9.811,-1.561 19.044,5.137 20.605,14.948c1.56,9.811 -5.138,19.044 -14.949,20.605c-9.811,1.561 -19.043,-5.137 -20.604,-14.948c-1.561,-9.811 5.137,-19.044 14.948,-20.605Z"/><path d="M81.981,40.065c9.811,-1.561 19.044,5.138 20.605,14.949c1.561,9.811 -5.137,19.043 -14.948,20.604c-9.811,1.561 -19.044,-5.137 -20.605,-14.948c-1.561,-9.811 5.137,-19.044 14.948,-20.605Z"/><path d="M135.31,31.581c9.811,-1.561 19.044,5.137 20.605,14.948c1.561,9.811 -5.137,19.044 -14.948,20.605c-9.811,1.56 -19.044,-5.138 -20.605,-14.949c-1.561,-9.811 5.137,-19.043 14.948,-20.604Z"/><path d="M188.64,23.096c9.811,-1.561 19.043,5.137 20.604,14.948c1.561,9.811 -5.137,19.044 -14.948,20.605c-9.811,1.561 -19.044,-5.137 -20.605,-14.948c-1.561,-9.811 5.138,-19.044 14.949,-20.605Z"/><path d="M241.969,14.611c9.811,-1.561 19.044,5.137 20.605,14.948c1.56,9.811 -5.138,19.044 -14.949,20.605c-9.811,1.561 -19.043,-5.137 -20.604,-14.948c-1.561,-9.811 5.137,-19.044 14.948,-20.605Z"/><path d="M295.298,6.126c9.811,-1.561 19.044,5.138 20.605,14.949c1.561,9.811 -5.137,19.043 -14.948,20.604c-9.811,1.561 -19.044,-5.137 -20.605,-14.948c-1.561,-9.811 5.137,-19.044 14.948,-20.605Z"/><path d="M348.627,-2.358c9.811,-1.561 19.044,5.137 20.605,14.948c1.561,9.811 -5.137,19.044 -14.948,20.605c-9.811,1.56 -19.044,-5.138 -20.605,-14.949c-1.561,-9.811 5.137,-19.043 14.948,-20.604Z"/><path d="M401.957,-10.843c9.811,-1.561 19.043,5.137 20.604,14.948c1.561,9.811 -5.137,19.044 -14.948,20.605c-9.811,1.561 -19.044,-5.137 -20.605,-14.948c-1.561,-9.811 5.138,-19.044 14.949,-20.605Z"/></g><g><path d="M9.454,98.958c9.811,-1.561 19.043,5.138 20.604,14.949c1.561,9.811 -5.137,19.043 -14.948,20.604c-9.811,1.561 -19.043,-5.137 -20.604,-14.948c-1.561,-9.811 5.137,-19.044 14.948,-20.605Z"/><path d="M62.783,90.474c9.811,-1.561 19.044,5.137 20.605,14.948c1.561,9.811 -5.137,19.044 -14.948,20.605c-9.812,1.56 -19.044,-5.138 -20.605,-14.949c-1.561,-9.811 5.137,-19.043 14.948,-20.604Z"/><path d="M116.112,81.989c9.811,-1.561 19.044,5.137 20.605,14.948c1.561,9.811 -5.137,19.044 -14.948,20.605c-9.811,1.561 -19.044,-5.137 -20.605,-14.948c-1.561,-9.811 5.137,-19.044 14.948,-20.605Z"/><path d="M169.442,73.504c9.811,-1.561 19.043,5.137 20.604,14.948c1.561,9.811 -5.137,19.044 -14.948,20.605c-9.811,1.561 -19.044,-5.137 -20.605,-14.948c-1.561,-9.811 5.137,-19.044 14.949,-20.605Z"/><path d="M222.771,65.019c9.811,-1.561 19.043,5.138 20.604,14.949c1.561,9.811 -5.137,19.043 -14.948,20.604c-9.811,1.561 -19.043,-5.137 -20.604,-14.948c-1.561,-9.811 5.137,-19.044 14.948,-20.605Z"/><path d="M276.1,56.535c9.811,-1.561 19.044,5.137 20.605,14.948c1.561,9.811 -5.137,19.044 -14.948,20.605c-9.812,1.56 -19.044,-5.138 -20.605,-14.949c-1.561,-9.811 5.137,-19.043 14.948,-20.604Z"/><path d="M329.429,48.05c9.811,-1.561 19.044,5.137 20.605,14.948c1.561,9.811 -5.137,19.044 -14.948,20.605c-9.811,1.561 -19.044,-5.137 -20.605,-14.948c-1.561,-9.811 5.137,-19.044 14.948,-20.605Z"/><path d="M382.759,39.565c9.811,-1.561 19.043,5.137 20.604,14.948c1.561,9.811 -5.137,19.044 -14.948,20.605c-9.811,1.561 -19.044,-5.137 -20.605,-14.948c-1.561,-9.811 5.137,-19.044 14.949,-20.605Z"/><path d="M436.088,31.08c9.811,-1.561 19.044,5.138 20.604,14.949c1.561,9.811 -5.137,19.043 -14.948,20.604c-9.811,1.561 -19.043,-5.137 -20.604,-14.948c-1.561,-9.811 5.137,-19.044 14.948,-20.605Z"/></g><g><path d="M-9.744,149.367c9.811,-1.561 19.043,5.137 20.604,14.948c1.561,9.811 -5.137,19.044 -14.948,20.605c-9.811,1.561 -19.044,-5.138 -20.604,-14.949c-1.561,-9.811 5.137,-19.043 14.948,-20.604Z"/><path d="M43.585,140.882c9.811,-1.561 19.044,5.137 20.605,14.948c1.561,9.811 -5.137,19.044 -14.949,20.605c-9.811,1.561 -19.043,-5.137 -20.604,-14.948c-1.561,-9.811 5.137,-19.044 14.948,-20.605Z"/><path d="M96.914,132.397c9.811,-1.561 19.044,5.137 20.605,14.948c1.561,9.811 -5.137,19.044 -14.948,20.605c-9.811,1.561 -19.044,-5.137 -20.605,-14.948c-1.561,-9.811 5.137,-19.044 14.948,-20.605Z"/><path d="M150.243,123.912c9.812,-1.56 19.044,5.138 20.605,14.949c1.561,9.811 -5.137,19.043 -14.948,20.604c-9.811,1.561 -19.044,-5.137 -20.605,-14.948c-1.561,-9.811 5.137,-19.044 14.948,-20.605Z"/><path d="M203.573,115.428c9.811,-1.561 19.043,5.137 20.604,14.948c1.561,9.811 -5.137,19.044 -14.948,20.605c-9.811,1.561 -19.043,-5.138 -20.604,-14.949c-1.561,-9.811 5.137,-19.043 14.948,-20.604Z"/><path d="M256.902,106.943c9.811,-1.561 19.044,5.137 20.605,14.948c1.561,9.811 -5.137,19.044 -14.949,20.605c-9.811,1.561 -19.043,-5.137 -20.604,-14.948c-1.561,-9.811 5.137,-19.044 14.948,-20.605Z"/><path d="M310.231,98.458c9.811,-1.561 19.044,5.137 20.605,14.948c1.561,9.811 -5.137,19.044 -14.948,20.605c-9.811,1.561 -19.044,-5.137 -20.605,-14.948c-1.561,-9.811 5.137,-19.044 14.948,-20.605Z"/><path d="M363.56,89.973c9.812,-1.56 19.044,5.138 20.605,14.949c1.561,9.811 -5.137,19.043 -14.948,20.604c-9.811,1.561 -19.044,-5.137 -20.605,-14.948c-1.561,-9.811 5.137,-19.044 14.948,-20.605Z"/><path d="M416.89,81.489c9.811,-1.561 19.043,5.137 20.604,14.948c1.561,9.811 -5.137,19.044 -14.948,20.605c-9.811,1.561 -19.043,-5.138 -20.604,-14.949c-1.561,-9.811 5.137,-19.043 14.948,-20.604Z"/></g><g><path d="M24.387,191.29c9.811,-1.561 19.044,5.137 20.605,14.948c1.561,9.811 -5.138,19.044 -14.949,20.605c-9.811,1.561 -19.043,-5.137 -20.604,-14.948c-1.561,-9.811 5.137,-19.044 14.948,-20.605Z"/><path d="M77.716,182.805c9.811,-1.56 19.044,5.138 20.605,14.949c1.561,9.811 -5.137,19.043 -14.948,20.604c-9.811,1.561 -19.044,-5.137 -20.605,-14.948c-1.561,-9.811 5.137,-19.044 14.948,-20.605Z"/><path d="M131.045,174.321c9.811,-1.561 19.044,5.137 20.605,14.948c1.561,9.811 -5.137,19.044 -14.948,20.605c-9.811,1.561 -19.044,-5.138 -20.605,-14.949c-1.561,-9.811 5.137,-19.043 14.948,-20.604Z"/><path d="M184.375,165.836c9.811,-1.561 19.043,5.137 20.604,14.948c1.561,9.811 -5.137,19.044 -14.948,20.605c-9.811,1.561 -19.044,-5.137 -20.605,-14.948c-1.56,-9.811 5.138,-19.044 14.949,-20.605Z"/><path d="M237.704,157.351c9.811,-1.561 19.044,5.137 20.605,14.948c1.561,9.811 -5.138,19.044 -14.949,20.605c-9.811,1.561 -19.043,-5.137 -20.604,-14.948c-1.561,-9.811 5.137,-19.044 14.948,-20.605Z"/><path d="M291.033,148.866c9.811,-1.56 19.044,5.138 20.605,14.949c1.561,9.811 -5.137,19.043 -14.948,20.604c-9.811,1.561 -19.044,-5.137 -20.605,-14.948c-1.561,-9.811 5.137,-19.044 14.948,-20.605Z"/><path d="M344.362,140.382c9.811,-1.561 19.044,5.137 20.605,14.948c1.561,9.811 -5.137,19.044 -14.948,20.605c-9.811,1.561 -19.044,-5.138 -20.605,-14.949c-1.561,-9.811 5.137,-19.043 14.948,-20.604Z"/><path d="M397.692,131.897c9.811,-1.561 19.043,5.137 20.604,14.948c1.561,9.811 -5.137,19.044 -14.948,20.605c-9.811,1.561 -19.044,-5.137 -20.605,-14.948c-1.56,-9.811 5.138,-19.044 14.949,-20.605Z"/></g><g><path d="M165.177,216.244c9.811,-1.561 19.043,5.137 20.604,14.948c1.561,9.812 -5.137,19.044 -14.948,20.605c-9.811,1.561 -19.044,-5.137 -20.605,-14.948c-1.561,-9.811 5.138,-19.044 14.949,-20.605Z"/><path d="M218.506,207.76c9.811,-1.561 19.044,5.137 20.605,14.948c1.56,9.811 -5.138,19.043 -14.949,20.604c-9.811,1.561 -19.043,-5.137 -20.604,-14.948c-1.561,-9.811 5.137,-19.044 14.948,-20.604Z"/><path d="M271.835,199.275c9.811,-1.561 19.044,5.137 20.605,14.948c1.561,9.811 -5.137,19.044 -14.948,20.605c-9.811,1.561 -19.044,-5.137 -20.605,-14.949c-1.561,-9.811 5.137,-19.043 14.948,-20.604Z"/><path d="M325.164,190.79c9.811,-1.561 19.044,5.137 20.605,14.948c1.561,9.811 -5.137,19.044 -14.948,20.605c-9.811,1.561 -19.044,-5.137 -20.605,-14.948c-1.561,-9.811 5.137,-19.044 14.948,-20.605Z"/><path d="M378.494,182.305c9.811,-1.561 19.043,5.137 20.604,14.948c1.561,9.812 -5.137,19.044 -14.948,20.605c-9.811,1.561 -19.044,-5.137 -20.605,-14.948c-1.561,-9.811 5.138,-19.044 14.949,-20.605Z"/><path d="M431.823,173.821c9.811,-1.561 19.044,5.137 20.605,14.948c1.56,9.811 -5.138,19.043 -14.949,20.604c-9.811,1.561 -19.043,-5.137 -20.604,-14.948c-1.561,-9.811 5.137,-19.044 14.948,-20.604Z"/></g></g></svg>